<svg width="36" height="36" viewBox="0 0 36 36" fill="none" xmlns="http://www.w3.org/2000/svg">
<circle cx="18" cy="18" r="17.75" fill="#F5F5F5" stroke="#1E1E1E" stroke-width="0.5"/>
<path d="M26 17.5L18 9L10 17.5M26 17.5H23.1429V18.0312M26 17.5L25.7143 18.0667M10 17.5H12.8571V18.0667M10 17.5L10.2857 18.0667M12.8571 24.8667H23.1429M12.8571 24.8667V18.6333M12.8571 24.8667L13.1429 25.4333M23.1429 24.8667V18.6333M23.1429 24.8667L22.8571 25.4333M12.8571 18.6333H10.5714L10.2857 18.0667M12.8571 18.6333V18.0667M23.1429 18.6333H23.7143H25.4286L25.7143 18.0667M23.1429 18.6333V18.0667V18.0312M12.8571 18.0667H10.2857M13.1429 25.4333L13.4286 26H22.5714L22.8571 25.4333M13.1429 25.4333H22.8571M25.7143 18.0667L23.1429 18.0312" stroke="black"/>
</svg>
